<?xml version="1.0" encoding="UTF-8" standalone="no"?>
<!-- Generator: Adobe Illustrator 24.3.0, SVG Export Plug-In . SVG Version: 6.00 Build 0)  -->

<svg
   version="1.1"
   id="Camada_1"
   x="0px"
   y="0px"
   viewBox="0 0 481.89 134.97999"
   xml:space="preserve"
   sodipodi:docname="rlbox-logo.svg"
   width="481.89001"
   height="134.98"
   inkscape:version="1.1.2 (0a00cf5339, 2022-02-04, custom)"
   xmlns:inkscape="http://www.inkscape.org/namespaces/inkscape"
   xmlns:sodipodi="http://sodipodi.sourceforge.net/DTD/sodipodi-0.dtd"
   xmlns="http://www.w3.org/2000/svg"
   xmlns:svg="http://www.w3.org/2000/svg"><defs
   id="defs143" /><sodipodi:namedview
   id="namedview141"
   pagecolor="#ffffff"
   bordercolor="#666666"
   borderopacity="1.0"
   inkscape:pageshadow="2"
   inkscape:pageopacity="0.0"
   inkscape:pagecheckerboard="0"
   showgrid="false"
   fit-margin-top="0"
   fit-margin-left="0"
   fit-margin-right="0"
   fit-margin-bottom="0"
   inkscape:zoom="0.96102398"
   inkscape:cx="240.88889"
   inkscape:cy="68.156468"
   inkscape:window-width="1920"
   inkscape:window-height="1080"
   inkscape:window-x="0"
   inkscape:window-y="0"
   inkscape:window-maximized="1"
   inkscape:current-layer="Camada_1" />
<style
   type="text/css"
   id="style2">
	.st0{fill-rule:evenodd;clip-rule:evenodd;fill:#1E1A16;}
	.st1{fill-rule:evenodd;clip-rule:evenodd;fill:#FFD197;}
	.st2{fill-rule:evenodd;clip-rule:evenodd;fill:url(#SVGID_1_);}
	.st3{fill-rule:evenodd;clip-rule:evenodd;fill:#FFAC40;}
	.st4{fill-rule:evenodd;clip-rule:evenodd;fill:url(#SVGID_2_);}
	.st5{fill-rule:evenodd;clip-rule:evenodd;fill:#C3822D;}
	.st6{fill-rule:evenodd;clip-rule:evenodd;fill:#EA9E3B;}
	.st7{fill-rule:evenodd;clip-rule:evenodd;fill:#CB8831;}
	.st8{fill-rule:evenodd;clip-rule:evenodd;fill:url(#SVGID_3_);}
	.st9{fill-rule:evenodd;clip-rule:evenodd;fill:#0E723B;}
	.st10{fill-rule:evenodd;clip-rule:evenodd;fill:#81C11F;}
	.st11{fill-rule:evenodd;clip-rule:evenodd;fill:#00913D;}
	.st12{fill-rule:evenodd;clip-rule:evenodd;fill:url(#SVGID_4_);}
	.st13{fill-rule:evenodd;clip-rule:evenodd;fill:#025DA2;}
	.st14{fill-rule:evenodd;clip-rule:evenodd;fill:#0091DF;}
	.st15{fill-rule:evenodd;clip-rule:evenodd;fill:#1288C5;}
	.st16{fill-rule:evenodd;clip-rule:evenodd;fill:#FF6601;}
	.st17{fill-rule:evenodd;clip-rule:evenodd;fill:#F6C28C;}
	.st18{fill-rule:evenodd;clip-rule:evenodd;fill:#FFF770;}
	.st19{fill-rule:evenodd;clip-rule:evenodd;fill:#D85700;}
	.st20{fill-rule:evenodd;clip-rule:evenodd;fill:#F6C100;}
	.st21{fill-rule:evenodd;clip-rule:evenodd;fill:#D4DF20;}
	.st22{fill-rule:evenodd;clip-rule:evenodd;fill:#969916;}
	.st23{fill-rule:evenodd;clip-rule:evenodd;fill:#FFD155;}
	.st24{fill-rule:evenodd;clip-rule:evenodd;fill:#BABB18;}
	.st25{fill-rule:evenodd;clip-rule:evenodd;fill:#A6A20C;}
	.st26{fill-rule:evenodd;clip-rule:evenodd;fill:#8C880E;}
	.st27{fill-rule:evenodd;clip-rule:evenodd;fill:url(#SVGID_5_);}
	.st28{fill-rule:evenodd;clip-rule:evenodd;fill:url(#SVGID_6_);}
	.st29{fill-rule:evenodd;clip-rule:evenodd;fill:#FCF3E3;}
</style>
<g
   id="g138"
   transform="translate(-180,-230.15)">
	<path
   class="st0"
   d="m 415.35,328.16 h -16.52 l -13.54,-19.4 h -1.82 -12.2 v 19.4 h -13.54 v -68.1 h 27.66 c 8.9,0 15.7,2.08 20.41,6.24 4.71,4.16 7.06,10.18 7.06,18.06 0,10.89 -4.51,18.15 -13.54,21.8 z m -32.18,-31.03 c 5.12,0 8.98,-1.09 11.57,-3.27 2.59,-2.18 3.89,-5.12 3.89,-8.84 0,-8.58 -4.8,-12.87 -14.41,-12.87 h -12.97 v 24.97 h 11.92 z m 40.74,31.03 v -68.1 h 13.74 v 55.33 h 35.64 v 12.77 z m 101.84,-36.5 c 4.42,0.96 7.94,2.87 10.57,5.72 2.63,2.85 3.94,6.45 3.94,10.81 0,13.32 -8.52,19.98 -25.55,19.98 h -32.56 v -68.1 h 30.54 c 7.3,0 12.86,1.44 16.67,4.32 3.81,2.88 5.72,7.01 5.72,12.39 -0.02,7.61 -3.12,12.57 -9.33,14.88 z m -30.07,-19.89 v 16.62 h 15.66 c 7.04,0 10.57,-2.88 10.57,-8.64 0,-2.63 -0.86,-4.61 -2.59,-5.95 -1.73,-1.35 -4.16,-2.02 -7.3,-2.02 h -16.34 z m 19.12,44.57 c 7.62,0 11.43,-2.88 11.43,-8.64 0,-5.64 -4.26,-8.45 -12.78,-8.45 h -17.77 v 17.1 h 19.12 z m 60.72,12.97 c -8.71,0 -15.7,-2.48 -20.99,-7.44 -5.28,-4.96 -7.92,-11.64 -7.92,-20.03 0,-8.26 2.66,-14.87 7.97,-19.84 5.31,-4.96 12.29,-7.44 20.94,-7.44 8.64,0 15.59,2.48 20.84,7.44 5.25,4.96 7.88,11.57 7.88,19.84 0,8.39 -2.63,15.06 -7.88,20.03 -5.25,4.96 -12.19,7.44 -20.84,7.44 z m 0,-12.1 c 4.48,0 8.12,-1.41 10.9,-4.23 2.79,-2.82 4.18,-6.53 4.18,-11.14 0,-4.55 -1.39,-8.21 -4.18,-11 -2.79,-2.79 -6.42,-4.18 -10.9,-4.18 -4.55,0 -8.21,1.39 -11,4.18 -2.79,2.79 -4.18,6.45 -4.18,11 0,4.61 1.39,8.32 4.18,11.14 2.79,2.82 6.45,4.23 11,4.23 z m 86.37,10.95 h -15.37 l -12.49,-17.19 -12.49,17.19 h -15.18 l 19.21,-26.89 -18.92,-25.55 h 15.56 l 11.81,16.52 12.01,-16.52 h 15.56 l -18.83,25.36 z"
   id="path4" />
	<g
   id="g136">
		<path
   class="st1"
   d="m 256.53,326.1 66.57,-26.71 c -45.06,-23.4 -89.76,-23.36 -129.7,0.28 z"
   id="path6" />
		<linearGradient
   id="SVGID_1_"
   gradientUnits="userSpaceOnUse"
   x1="181.09641"
   y1="282.9512"
   x2="336.28311"
   y2="282.9512">
			<stop
   offset="0"
   style="stop-color:#E45516"
   id="stop8" />
			<stop
   offset="0.43"
   style="stop-color:#E45516"
   id="stop10" />
			<stop
   offset="1"
   style="stop-color:#BD351F"
   id="stop12" />
		</linearGradient>
		<path
   class="st2"
   d="m 193.25,299.76 c -4.05,-1.75 -8.11,-3.49 -12.16,-5.24 25.34,-9.27 53.53,-19.11 78.88,-28.39 25.67,9.27 50.64,18.78 76.31,28.05 -4.37,1.75 -8.75,3.49 -13.12,5.24 -45.14,-23.45 -89.91,-23.4 -129.91,0.34 z"
   id="path15"
   style="fill:url(#SVGID_1_)" />
		<polygon
   class="st3"
   points="267.26,233.87 228.44,248.44 228.45,248.45 228.07,248.59 221.74,244.76 260.24,230.15 261.37,230.74 223.15,245.25 228.03,248.2 266.84,233.64 "
   id="polygon17" />
		<linearGradient
   id="SVGID_2_"
   gradientUnits="userSpaceOnUse"
   x1="241.1606"
   y1="249.3808"
   x2="247.1277"
   y2="230.6666">
			<stop
   offset="0"
   style="stop-color:#FFFFFF"
   id="stop19" />
			<stop
   offset="0.52"
   style="stop-color:#F0F0F0"
   id="stop21" />
			<stop
   offset="1"
   style="stop-color:#EBEBEB"
   id="stop23" />
		</linearGradient>
		<polygon
   class="st4"
   points="265.32,234.21 228.03,248.2 223.15,245.25 259.87,231.31 "
   id="polygon26"
   style="fill:url(#SVGID_2_)" />
		<path
   class="st5"
   d="m 221.74,299.19 v -54.42 l 6.33,3.82 v 48.87 c -2.17,0.51 -4.28,1.09 -6.33,1.73 z"
   id="path28" />
		<path
   class="st6"
   d="m 228.07,297.45 v -48.87 l 39.2,-14.71 v 60.57 c -13.18,-0.93 -27.04,0.11 -39.2,3.01 z"
   id="path30" />
		<polygon
   class="st7"
   points="259.88,231.31 261.37,230.74 261.37,232.1 "
   id="polygon32" />
		<linearGradient
   id="SVGID_3_"
   gradientUnits="userSpaceOnUse"
   x1="252.26089"
   y1="256.34079"
   x2="258.228"
   y2="237.6265">
			<stop
   offset="0"
   style="stop-color:#FFFFFF"
   id="stop34" />
			<stop
   offset="0.52"
   style="stop-color:#F0F0F0"
   id="stop36" />
			<stop
   offset="1"
   style="stop-color:#EBEBEB"
   id="stop38" />
		</linearGradient>
		<polygon
   class="st8"
   points="276.42,241.17 239.13,255.16 234.25,252.21 270.97,238.27 "
   id="polygon41"
   style="fill:url(#SVGID_3_)" />
		<path
   class="st9"
   d="m 232.84,296.43 v -44.7 l 6.33,3.82 v 39.83 c -2.14,0.3 -4.26,0.65 -6.33,1.05 z"
   id="path43" />
		<polygon
   class="st10"
   points="232.84,251.72 271.34,237.11 272.47,237.7 234.25,252.21 239.14,255.16 277.94,240.6 278.36,240.83 239.54,255.4 239.55,255.4 239.17,255.55 "
   id="polygon45" />
		<path
   class="st11"
   d="m 239.17,295.38 v -39.83 l 39.2,-14.71 v 54.79 c -2.1,-0.32 -4.35,-0.59 -6.71,-0.8 -10.64,-1.13 -21.9,-0.93 -32.49,0.55 z"
   id="path47" />
		<polygon
   class="st9"
   points="270.98,238.27 272.47,237.7 272.47,239.06 "
   id="polygon49" />
		<linearGradient
   id="SVGID_4_"
   gradientUnits="userSpaceOnUse"
   x1="264.98599"
   y1="264.72861"
   x2="270.95309"
   y2="246.01421">
			<stop
   offset="0"
   style="stop-color:#FFFFFF"
   id="stop51" />
			<stop
   offset="0.52"
   style="stop-color:#F0F0F0"
   id="stop53" />
			<stop
   offset="1"
   style="stop-color:#EBEBEB"
   id="stop55" />
		</linearGradient>
		<polygon
   class="st12"
   points="289.15,249.56 251.86,263.55 246.98,260.6 283.7,246.65 "
   id="polygon58"
   style="fill:url(#SVGID_4_)" />
		<path
   class="st13"
   d="m 245.56,294.65 v -34.54 l 6.33,3.82 v 30.3 c -2.11,0.09 -4.23,0.23 -6.33,0.42 z"
   id="path60" />
		<polygon
   class="st14"
   points="245.56,260.11 284.07,245.5 285.19,246.09 246.98,260.6 251.86,263.54 290.67,248.99 291.09,249.22 252.27,263.79 251.9,263.93 "
   id="polygon62" />
		<path
   class="st15"
   d="m 251.89,294.23 v -30.3 l 39.2,-14.71 v 49.44 c -0.9,-0.28 -1.81,-0.54 -2.74,-0.79 -4.15,-1.38 -9.95,-2.45 -16.72,-3.05 -6.44,-0.68 -13.12,-0.87 -19.74,-0.59 z"
   id="path64" />
		<polygon
   class="st13"
   points="283.7,246.66 285.19,246.09 285.19,247.45 "
   id="polygon66" />
		<polygon
   class="st16"
   points="256.59,328.25 256.85,365.13 180,325.39 180,295.95 "
   id="polygon68" />
		<polygon
   class="st3"
   points="256.59,328.25 256.85,365.13 336.61,324.86 336.61,295.42 "
   id="polygon70" />
		<path
   class="st17"
   d="m 215.11,301.55 c 25.42,-10.38 65.84,-10.14 88.19,2.17 -24.53,-5.81 -60.92,-6.76 -88.19,-2.17 z"
   id="path72" />
		<path
   class="st18"
   d="m 218.16,295.29 c 0.99,0 1.8,0.43 1.8,0.96 0,0.53 -0.8,0.96 -1.8,0.96 -0.99,0 -1.8,-0.43 -1.8,-0.96 0.01,-0.53 0.81,-0.96 1.8,-0.96 z"
   id="path74" />
		<path
   class="st19"
   d="m 230.9,309.48 c 0.99,0 1.8,0.43 1.8,0.96 0,0.53 -0.8,0.96 -1.8,0.96 -0.99,0 -1.8,-0.43 -1.8,-0.96 0,-0.53 0.81,-0.96 1.8,-0.96 z"
   id="path76" />
		<path
   class="st19"
   d="m 270.74,308.87 c 0.99,0 1.8,0.43 1.8,0.96 0,0.53 -0.8,0.96 -1.8,0.96 -0.99,0 -1.8,-0.43 -1.8,-0.96 0.01,-0.53 0.81,-0.96 1.8,-0.96 z"
   id="path78" />
		<path
   class="st20"
   d="m 294.03,306.22 c 1.05,0 1.91,0.42 1.91,0.94 0,0.52 -0.85,0.94 -1.91,0.94 -1.05,0 -1.91,-0.42 -1.91,-0.94 0,-0.53 0.86,-0.94 1.91,-0.94 z"
   id="path80" />
		<path
   class="st6"
   d="m 253.11,317.41 c 0.77,0 1.39,0.28 1.39,0.63 0,0.35 -0.62,0.63 -1.39,0.63 -0.77,0 -1.39,-0.28 -1.39,-0.63 0,-0.35 0.62,-0.63 1.39,-0.63 z"
   id="path82" />
		<path
   class="st19"
   d="m 203.98,298.16 c 0.99,0 1.8,0.43 1.8,0.96 0,0.53 -0.8,0.96 -1.8,0.96 -0.99,0 -1.8,-0.43 -1.8,-0.96 0,-0.53 0.81,-0.96 1.8,-0.96 z"
   id="path84" />
		<path
   class="st18"
   d="m 302.79,296.77 c 0.86,0 1.55,0.31 1.55,0.7 0,0.39 -0.7,0.7 -1.55,0.7 -0.86,0 -1.55,-0.32 -1.55,-0.7 0,-0.38 0.7,-0.7 1.55,-0.7 z"
   id="path86" />
		<path
   class="st19"
   d="m 261.48,315.92 c -1.07,0 -1.94,0.48 -1.94,1.07 0,0.59 0.87,1.07 1.94,1.07 1.07,0 1.94,-0.48 1.94,-1.07 0,-0.59 -0.87,-1.07 -1.94,-1.07 z"
   id="path88" />
		<path
   class="st20"
   d="m 225.56,304.02 c -1.43,0 -2.6,0.59 -2.6,1.33 0,0.73 1.16,1.32 2.6,1.32 1.43,0 2.6,-0.59 2.6,-1.32 -0.01,-0.74 -1.17,-1.33 -2.6,-1.33 z"
   id="path90" />
		<path
   class="st18"
   d="m 262.87,303.34 c -0.92,-0.07 -1.65,0.22 -1.62,0.66 0.03,0.44 0.8,0.85 1.73,0.92 0.92,0.07 1.65,-0.22 1.62,-0.66 -0.03,-0.44 -0.8,-0.85 -1.73,-0.92 z"
   id="path92" />
		<path
   class="st21"
   d="m 247.84,300.03 c -4.58,-0.97 -8.69,-0.02 -9.19,2.12 -0.5,2.14 2.81,4.65 7.39,5.62 4.58,0.97 8.69,0.02 9.19,-2.12 0.5,-2.14 -2.81,-4.66 -7.39,-5.62 z"
   id="path94" />
		<path
   class="st22"
   d="m 247.46,300.59 -0.11,-0.02 -0.03,-0.01 c -2.34,-0.44 -4.3,-0.28 -5.62,0.24 -0.94,0.36 -1.57,0.91 -1.73,1.62 -0.02,0.1 -0.04,0.21 -0.04,0.32 -0.03,0.71 0.41,1.51 1.42,2.32 0.04,0.04 0.09,0.07 0.13,0.1 l 0.01,0.01 c 0.07,0.05 0.14,0.11 0.22,0.16 0.03,0.02 0.05,0.04 0.08,0.06 l 0.03,0.02 c 0.03,0.02 0.06,0.04 0.09,0.06 l 0.02,0.01 c 0.03,0.02 0.07,0.04 0.1,0.07 l 0.01,0.01 c 0.04,0.02 0.07,0.04 0.11,0.07 l 0.01,0.01 v 0 0 c 0.04,0.02 0.07,0.04 0.11,0.06 l 0.01,0.01 v 0 c 0.04,0.02 0.07,0.04 0.11,0.06 l 0.03,0.02 c 0.03,0.02 0.06,0.04 0.1,0.05 l 0.04,0.02 0.08,0.05 0.06,0.03 0.03,0.02 0.03,0.02 c 0.21,0.11 0.43,0.22 0.66,0.32 l 0.08,0.04 c 0.41,0.17 0.84,0.34 1.3,0.48 0.5,0.16 1.02,0.29 1.54,0.39 l 0.08,0.02 0.04,0.01 v 0 c 0.36,0.07 0.71,0.12 1.06,0.16 v 0 l 0.04,0.01 c 0.96,0.11 1.87,0.12 2.69,0.03 h 0.01 c 1.14,-0.12 2.09,-0.41 2.74,-0.86 v 0 c 0.02,-0.01 0.04,-0.02 0.05,-0.04 v 0 c 0.39,-0.28 0.69,-0.62 0.82,-1.06 v -0.02 c 0.01,-0.03 0.01,-0.05 0.02,-0.08 0.42,-1.8 -2.37,-3.92 -6.23,-4.73 -0.04,-0.03 -0.12,-0.05 -0.2,-0.06 z"
   id="path96" />
		<path
   class="st23"
   d="m 240.78,304.55 c 1.07,1.11 3.03,2.1 5.41,2.6 2.37,0.5 4.6,0.39 6.06,-0.19 -0.27,-1.36 -2.41,-2.78 -5.23,-3.37 -2.83,-0.6 -5.4,-0.16 -6.24,0.96 z"
   id="path98" />
		<path
   class="st24"
   d="m 238.61,302.37 -0.42,1.76 c -0.51,2.13 2.81,4.65 7.39,5.62 4.58,0.97 8.68,0.01 9.19,-2.12 l 0.47,-1.94 c 0.02,-0.08 0.03,-0.16 0.03,-0.23 -0.01,0.06 -0.02,0.13 -0.03,0.19 -0.5,2.14 -4.61,3.08 -9.19,2.12 -4.43,-0.94 -7.66,-3.31 -7.44,-5.4 z"
   id="path100" />
		<path
   class="st25"
   d="m 252.64,309.57 -2.03,4.93 c -0.11,0.26 -0.14,0.41 -0.2,0.54 -0.9,-0.3 -1.84,-0.58 -2.79,-0.84 -3.28,-0.88 -6.84,-1.45 -9.02,-1.55 l 0.21,-6.4 c 0.51,0.62 0.76,0.85 1.46,1.34 1.33,0.92 3.18,1.7 5.3,2.15 1.71,0.36 3.61,0.39 5.18,0.21 0.71,-0.07 1.36,-0.23 1.89,-0.38 z"
   id="path102" />
		<path
   class="st26"
   d="m 252.64,309.57 -0.31,0.74 c -1.72,0.55 -4.15,0.61 -6.74,0.07 -3.12,-0.66 -5.66,-2.03 -6.8,-3.52 l 0.02,-0.61 c 0.51,0.62 0.76,0.85 1.46,1.34 1.33,0.92 3.18,1.7 5.3,2.15 1.71,0.36 3.61,0.39 5.18,0.21 0.71,-0.07 1.36,-0.23 1.89,-0.38 z"
   id="path104" />
		<path
   class="st0"
   d="m 255.08,307.32 c -0.03,-0.09 -0.11,-0.16 -0.21,-0.19 -0.07,0.31 -0.14,0.6 -0.29,0.86 0.37,1.14 0.45,2.42 -0.4,3.36 -0.96,1.06 -2.76,1.35 -4.32,1.32 -3.77,-0.07 -8.4,-2.01 -8.55,-5.63 -0.01,-0.17 -0.17,-0.31 -0.37,-0.31 -0.2,0 -0.35,0.13 -0.35,0.3 0.17,4.11 5.44,6.33 9.73,6.25 3.03,-0.06 5.48,-1.29 5.22,-4.14 -0.04,-0.55 -0.19,-1.15 -0.46,-1.82 z"
   id="path106" />
		<path
   class="st6"
   d="m 310.57,299.22 c 0.94,0 1.7,0.36 1.7,0.8 0,0.44 -0.76,0.8 -1.7,0.8 -0.94,0 -1.7,-0.36 -1.7,-0.8 0,-0.44 0.76,-0.8 1.7,-0.8 z"
   id="path108" />
		<g
   id="g128">
			<linearGradient
   id="SVGID_5_"
   gradientUnits="userSpaceOnUse"
   x1="281.00699"
   y1="276.6265"
   x2="286.81509"
   y2="307.09851">
				<stop
   offset="0"
   style="stop-color:#954727"
   id="stop110" />
				<stop
   offset="0.71"
   style="stop-color:#E6692D"
   id="stop112" />
				<stop
   offset="1"
   style="stop-color:#A15F3C"
   id="stop114" />
			</linearGradient>
			<path
   class="st27"
   d="m 292.07,278.52 c -1.29,3.66 -5.27,4.41 -5.25,-1.68 1.94,-0.02 3.84,0.61 5.25,1.68 z m -7.85,9.4 c -0.5,1.72 -2.12,6.26 -2.69,7.89 -5.79,0.04 -7.52,-0.58 -9.99,9.31 1.31,-0.24 5.6,-0.28 7.96,0.36 2.66,0.72 5.17,2.19 7.24,3.18 3.27,-9.27 2.39,-7.96 -2.01,-11.78 l 2.62,-8 1.31,-3.88 c 2.31,-0.61 7.1,-0.59 7.25,-8.29 -1.93,-1.37 -7.62,-3.2 -10.3,-3.36 -3.13,3.58 -3.38,7.12 0,10.19 z"
   id="path117"
   style="fill:url(#SVGID_5_)" />
			<linearGradient
   id="SVGID_6_"
   gradientUnits="userSpaceOnUse"
   x1="286.23639"
   y1="276.89581"
   x2="281.33789"
   y2="305.81631">
				<stop
   offset="0"
   style="stop-color:#E6692D"
   id="stop119" />
				<stop
   offset="0.71"
   style="stop-color:#E6692D"
   id="stop121" />
				<stop
   offset="1"
   style="stop-color:#843D27"
   id="stop123" />
			</linearGradient>
			<path
   class="st28"
   d="m 292.07,278.92 c -1.29,3.66 -5.27,4.41 -5.25,-1.68 1.95,-0.02 3.84,0.62 5.25,1.68 z m -7.84,9.41 c -0.5,1.73 -2.12,6.26 -2.69,7.89 -5.79,0.04 -7.52,-0.98 -9.99,8.91 1.31,-0.24 5.6,0.12 7.96,0.76 2.66,0.72 5.17,2.19 7.24,3.18 3.27,-9.27 2.39,-7.96 -2.01,-11.78 l 2.62,-8 1.31,-3.88 c 2.31,-0.61 7.1,-0.59 7.25,-8.29 -1.93,-1.37 -7.62,-3.2 -10.3,-3.36 -3.13,3.58 -3.38,7.12 0,10.19 z"
   id="path126"
   style="fill:url(#SVGID_6_)" />
		</g>
		<polygon
   class="st29"
   points="256.59,328.25 180,295.95 181.1,294.53 256.53,326.1 336.28,294.19 336.61,295.42 "
   id="polygon130" />
		<path
   class="st6"
   d="m 249.1,306.1 c 0.29,0 0.53,0.13 0.53,0.28 0,0.16 -0.24,0.28 -0.53,0.28 -0.29,0 -0.53,-0.13 -0.53,-0.28 0,-0.15 0.24,-0.28 0.53,-0.28 z"
   id="path132" />
		<ellipse
   class="st18"
   cx="244.16"
   cy="304.88"
   rx="0.52999997"
   ry="0.28"
   id="ellipse134" />
	</g>
</g>
</svg>
